<?xml version="1.0" encoding="utf-8"?>
<!-- Generator: Adobe Illustrator 27.9.0, SVG Export Plug-In . SVG Version: 6.00 Build 0)  -->
<svg version="1.1" id="Layer_1" xmlns="http://www.w3.org/2000/svg" xmlns:xlink="http://www.w3.org/1999/xlink" x="0px" y="0px"
	 viewBox="0 0 350 105" style="enable-background:new 0 0 350 105;" xml:space="preserve">
<style type="text/css">
	.st0{fill:#03131A;}
	.st1{fill:#05141B;}
	.st2{fill:#07171E;}
	.st3{fill:#0A1920;}
</style>
<g>
	<path class="st0" d="M83.3,58c0.8-2.1,1.5-4,2.2-5.9c1.3-3.6,2.7-7.2,4-10.8c0.2-0.5,0.4-0.7,1-0.7c3.2,0,6.4,0,9.6,0
		c0.5,0,0.8,0.1,0.8,0.7c0,9.8,0,19.5,0,29.3c0,0.5-0.1,0.7-0.7,0.7c-2.2,0-4.3,0-6.5,0c-0.7,0-0.8-0.1-0.8-0.8c0-6.1,0-12.3,0-18.4
		c0-0.3,0-0.6,0-1c-0.3,0.3-0.4,0.7-0.5,1c-2.3,6.1-4.6,12.2-6.9,18.3c-0.2,0.6-0.5,1-1.3,0.9c-0.9-0.1-2,0.3-2.6-0.2
		c-0.6-0.5-0.7-1.5-1-2.3c-2.1-5.7-4.3-11.4-6.4-17.2c-0.1-0.2-0.1-0.4-0.4-0.5c0,0.3,0,0.6,0,0.8c0,6.2,0,12.3,0,18.5
		c0,0.7-0.2,0.9-0.9,0.9c-2.1-0.1-4.2,0-6.3,0c-0.6,0-0.8-0.1-0.8-0.8c0-9.7,0-19.5,0-29.2c0-0.6,0.2-0.7,0.7-0.7c3.2,0,6.4,0,9.6,0
		c0.6,0,0.8,0.2,1,0.7C79.3,46.9,81.3,52.3,83.3,58z"/>
	<path class="st0" d="M58.6,55.5c2.6,0.8,4.3,2.4,5.1,4.8c1.5,4.4-0.5,10.5-7.3,11c-2.3,0.2-4.7,0.1-7,0.1c-3.9,0-7.7,0-11.6,0
		c-0.5,0-0.7-0.1-0.7-0.7c0-9.8,0-19.6,0-29.4c0-0.5,0.1-0.6,0.6-0.6c5.8,0,11.5,0,17.3,0c2.5,0,4.8,0.8,6.6,2.8
		C64.8,47,64,53.7,58.6,55.5z M49.4,59.1C49.4,59.1,49.4,59.1,49.4,59.1c-1.3,0-2.5,0-3.8,0c-0.4,0-0.7,0.1-0.6,0.6c0,1.5,0,3,0,4.6
		c0,0.4,0.1,0.6,0.5,0.6c2.6,0,5.2,0,7.8-0.1c1.8-0.1,2.7-1.2,2.7-2.8c0-1.6-1.1-2.7-2.8-2.8C51.9,59.1,50.7,59.1,49.4,59.1z
		 M49.3,47.3c-1.2,0-2.4,0-3.6,0c-0.5,0-0.7,0.1-0.7,0.6c0,1.3,0,2.7,0,4c0,0.4,0.1,0.6,0.5,0.6c2.5,0,4.9,0,7.4,0
		c1.5,0,2.5-1.2,2.5-2.6c0-1.5-1.1-2.6-2.6-2.6C51.6,47.3,50.4,47.3,49.3,47.3z"/>
	<path class="st0" d="M5.5,50.9c0-3.1,0-6.3,0-9.4c0-0.6,0.1-0.8,0.8-0.8c2.2,0,4.4,0,6.5,0c0.6,0,0.8,0.2,0.8,0.8
		c0,5.7,0,11.4,0,17.1c0,1.1,0.2,2.1,0.5,3.1c0.2,0.6,0.6,1.1,1,1.6c1.6,1.7,4.8,2.2,7.4,1.3c2.1-0.8,3.4-2.9,3.4-5.6
		c0-5.7,0-11.5,0-17.2c0-0.9,0.3-1,1-1c2.2,0.1,4.3,0,6.5,0c0.5,0,0.6,0.1,0.6,0.6c0,6,0.1,12,0,18c-0.1,7.4-4.6,12-12,12.5
		c-2.5,0.2-4.9,0.1-7.4-0.5C9,69.9,5.6,65.6,5.5,59.7C5.5,56.8,5.5,53.8,5.5,50.9z"/>
	<path class="st1" d="M239,25.5c0,2.1,0,4.2,0,6.3c0,3.2,0,6.4,0,9.6c0,0.6-0.2,0.8-0.8,0.8c-1.3-0.1-2.5,0-3.8,0
		c-0.5,0-0.6-0.1-0.6-0.6c0-8.1,0-16.2,0-24.3c0-0.5,0.1-0.7,0.6-0.7c1.8,0,3.5,0,5.3,0c0.6,0,0.7,0.4,0.9,0.8
		c2.2,5.2,4.4,10.3,6.6,15.5c0.1,0.2,0.2,0.4,0.3,0.7c0.7-1.6,1.4-3.2,2.1-4.7c1.7-3.9,3.4-7.7,5-11.6c0.2-0.6,0.5-0.8,1.1-0.7
		c1.6,0,3.3,0,4.9,0c0.5,0,0.6,0.1,0.6,0.6c0,8.1,0,16.3,0,24.4c0,0.5-0.1,0.6-0.6,0.6c-1.3,0-2.5,0-3.8,0c-0.6,0-0.8-0.2-0.8-0.8
		c0-5,0-9.9,0-14.9c0-0.3,0-0.7,0-1c-0.4,0.1-0.4,0.3-0.4,0.5c-2.2,5.1-4.4,10.2-6.6,15.4c-0.3,0.6-0.6,0.8-1.2,0.8
		c-1.6,0-1.6,0-2.2-1.5c-2.1-4.9-4.2-9.7-6.3-14.6c-0.1-0.2-0.2-0.4-0.3-0.6C239.1,25.4,239.1,25.5,239,25.5z"/>
	<path class="st1" d="M287,25.2c-0.9,2.1-1.8,4.2-2.7,6.3c-1.4,3.3-2.9,6.6-4.2,9.9c-0.2,0.6-0.5,0.7-1.1,0.7c-1.7,0-1.7,0-2.3-1.5
		c-2.1-4.9-4.2-9.8-6.4-14.8c-0.1-0.2-0.2-0.4-0.4-0.5c0,0.3,0,0.6,0,0.9c0,5,0,10,0,15c0,0.8-0.2,0.9-0.9,0.9
		c-1.2-0.1-2.3-0.1-3.5,0c-0.6,0-0.7-0.2-0.7-0.7c0-5.1,0-10.1,0-15.2c0-2.9,0-5.8,0-8.7c0-0.9,0.3-1,1.1-1c1.5,0.1,3,0.1,4.6,0
		c0.7,0,1,0.2,1.2,0.8c2.3,5.4,4.6,10.7,6.8,16c0.3-0.2,0.4-0.5,0.5-0.8c2.2-5.1,4.4-10.2,6.6-15.2c0.3-0.6,0.6-0.8,1.3-0.8
		c1.6,0.1,3.2,0,4.8,0c0.5,0,0.7,0.1,0.7,0.6c0,8.1,0,16.2,0,24.3c0,0.5-0.1,0.7-0.6,0.6c-1.2,0-2.5-0.1-3.7,0
		c-0.7,0-0.8-0.2-0.8-0.8c0-5.1,0-10.2,0-15.2c0-0.3,0-0.6,0-0.9C287.1,25.2,287.1,25.2,287,25.2z"/>
	<path class="st0" d="M339.4,34c0-0.5,0-0.8,0-1.1c0-5.2,0-10.3,0-15.5c0-0.7,0.2-0.9,0.9-0.9c1.2,0.1,2.4,0,3.7,0
		c0.5,0,0.7,0.1,0.7,0.6c0,8.1,0,16.3,0,24.4c0,0.5-0.2,0.6-0.6,0.6c-1.4,0-2.8,0-4.1,0c-0.6,0-0.9-0.2-1.2-0.7
		c-3.4-5.3-6.8-10.5-10.1-15.8c-0.2-0.2-0.3-0.5-0.6-0.9c0,0.6,0,0.9,0,1.2c0,5.1,0,10.3,0,15.4c0,0.6-0.1,0.8-0.8,0.8
		c-1.2-0.1-2.5-0.1-3.7,0c-0.7,0-0.8-0.2-0.8-0.8c0-6.5,0-13,0-19.4c0-1.6,0-3.1,0-4.7c0-0.5,0.2-0.7,0.7-0.6c1.3,0,2.7,0,4,0
		c0.6,0,0.9,0.2,1.2,0.7c3.3,5.2,6.7,10.4,10.1,15.7C338.8,33.2,339,33.5,339.4,34z"/>
	<path class="st0" d="M172.2,34c0-0.5,0-0.8,0-1.1c0-5.1,0-10.3,0-15.4c0-0.8,0.2-0.9,0.9-0.9c1.2,0.1,2.5,0,3.7,0
		c0.5,0,0.6,0.2,0.6,0.7c0,8.1,0,16.2,0,24.3c0,0.5-0.2,0.6-0.7,0.6c-1.3,0-2.7,0-4,0c-0.6,0-1-0.2-1.3-0.7
		c-3.4-5.3-6.8-10.6-10.2-16c-0.1-0.2-0.2-0.4-0.5-0.8c0,0.5,0,0.8,0,1.1c0,5.2,0,10.3,0,15.5c0,0.7-0.1,0.9-0.8,0.8
		c-1.3-0.1-2.5,0-3.8,0c-0.5,0-0.7-0.1-0.7-0.6c0-8.1,0-16.2,0-24.3c0-0.6,0.2-0.7,0.7-0.7c1.3,0,2.6,0.1,3.9,0
		c0.7,0,1.1,0.2,1.4,0.8c3.4,5.3,6.8,10.6,10.3,16C171.8,33.4,171.9,33.6,172.2,34z"/>
	<path class="st1" d="M307.7,42.7c-2.5,0-4.7-0.3-6.8-1.4c-3.1-1.6-4.7-4.3-5.5-7.6c-0.7-3-0.7-6,0-9c1.2-5.3,5.4-8.7,10.9-8.9
		c1.8-0.1,3.6,0,5.3,0.5c3.7,1.1,6.2,3.4,7.4,7c1.3,3.8,1.3,7.8,0,11.6c-1.4,4.4-5.1,7.2-9.7,7.6C308.7,42.7,308.1,42.7,307.7,42.7z
		 M314.2,29.3c0-0.9-0.1-1.9-0.2-2.8c-0.4-3.2-2.3-5.2-5.3-5.7c-3.8-0.7-6.8,1.2-7.7,4.8c-0.3,0.9-0.3,1.9-0.4,2.8
		c-0.1,1.5,0,3,0.4,4.4c1,4.1,4.8,6,8.9,4.6c1.4-0.5,2.5-1.4,3.2-2.7C314.1,33.1,314.2,31.2,314.2,29.3z"/>
	<path class="st1" d="M206.2,29.3c-0.1-1.7,0.1-3.5,0.6-5.1c1.4-5,5.5-8.1,10.8-8.2c1.7,0,3.3,0,5,0.4c3.8,1,6.5,3.4,7.7,7.2
		c1.3,3.9,1.3,7.8,0,11.6c-1.5,4.6-4.9,7-9.6,7.5c-2.6,0.3-5.3,0.1-7.7-0.9c-4-1.8-5.8-5.1-6.5-9.2
		C206.3,31.4,206.2,30.4,206.2,29.3z M211.9,29.2c0,0.8,0.1,1.5,0.1,2.3c0.4,4,2.5,6.1,6.2,6.4c3.6,0.3,6.1-1.5,6.9-5
		c0.6-2.5,0.6-5,0-7.4c-0.7-2.6-2.3-4.2-5-4.6c-4-0.6-7.1,1.1-7.9,5.5C212,27.3,212,28.3,211.9,29.2z"/>
	<path class="st1" d="M201.4,26.1c-0.1,0-0.2,0-0.3,0c-0.7,0-1.6,0.2-2.2-0.1c-0.7-0.3-0.4-1.3-0.7-1.9c-0.9-2.3-3.3-3.7-6.2-3.4
		c-3.3,0.3-5.3,2.1-5.8,5.4c-0.4,2.1-0.3,4.3,0,6.4c0.6,3.9,3.5,6,7.4,5.4c2.8-0.4,4.8-2.2,5-4.8c0-0.4,0.2-0.5,0.6-0.5
		c1.5,0,3,0,4.5,0c0.6,0,0.7,0.2,0.6,0.7c-0.4,4.6-3.7,8.2-8.6,9.1c-2.8,0.5-5.6,0.4-8.3-0.6c-3.4-1.3-5.6-3.8-6.6-7.2
		c-0.9-3.3-1-6.7-0.1-10c1.3-5.2,5.1-8.3,10.5-8.7c3.2-0.2,6.3,0.2,9,2.1c2.6,1.8,3.8,4.4,4.1,7.4c0,0.5-0.1,0.6-0.6,0.6
		C202.9,26.1,202.1,26.1,201.4,26.1z"/>
	<path class="st2" d="M131.6,26c0-2.8,0-5.6,0-8.4c0-0.9,0.3-1,1-1c1.1,0.1,2.3,0.1,3.4,0c0.8,0,0.9,0.2,0.9,1c0,5,0,9.9,0,14.9
		c0,0.8,0,1.6,0.2,2.3c0.4,1.7,1.4,2.8,3.2,3.2c1,0.2,2.1,0.2,3.1,0c2.1-0.4,3.2-1.7,3.4-3.8c0.2-1.8,0.1-3.5,0.1-5.3
		c0-3.8,0-7.6,0-11.5c0-0.6,0.2-0.8,0.8-0.8c1.3,0,2.6,0,3.9,0c0.4,0,0.7,0,0.7,0.6c0,5.7,0.1,11.4-0.1,17.1
		c-0.2,5.2-2.5,7.6-7.6,8.3c-2.4,0.4-4.8,0.3-7.2-0.3c-3.6-0.9-5.7-3.6-5.9-7.6C131.6,31.8,131.6,28.9,131.6,26
		C131.6,26,131.6,26,131.6,26z"/>
	<path class="st3" d="M141.1,57.2c0.9,0.3,1.7,0.7,2.4,1.2c2,1.6,2.3,6.9-1.3,8.4c-1.2,0.5-2.4,0.7-3.7,0.7c-1.9,0-3.9,0-5.8,0
		c-0.7,0-0.8-0.2-0.8-0.8c0-6.1,0-12.2,0-18.3c0-0.3-0.2-0.8,0.4-0.8c2.7,0.1,5.3-0.2,8,0.3c1.8,0.4,3.2,1.4,3.7,3.2
		c0.4,1.8,0.3,3.6-1.2,5.1C142.4,56.6,141.8,56.8,141.1,57.2z M133.4,62c0,0.9,0,1.7,0,2.6c0,1.5,0,1.5,1.5,1.5
		c1.9,0,3.8,0.2,5.6-0.3c1.4-0.4,2.3-1.2,2.6-2.6c0.6-2.7-0.7-4.7-3.5-5.1c-1.9-0.3-3.9-0.1-5.8-0.1c-0.5,0-0.4,0.3-0.4,0.6
		C133.4,59.7,133.4,60.9,133.4,62z M133.4,52.8c0,1.1,0,2.2,0,3.3c0,0.3-0.1,0.6,0.4,0.5c1.9-0.1,3.8,0.2,5.6-0.2
		c2.1-0.4,3.2-1.8,3.2-3.8c0-1.9-1.2-3.2-3.2-3.5c-1.8-0.3-3.6-0.1-5.5-0.2c-0.4,0-0.5,0.2-0.5,0.5
		C133.4,50.6,133.4,51.7,133.4,52.8z"/>
	<path class="st3" d="M200.2,64.8c0-0.3,0-0.7,0-1c0-5.2,0-10.3,0-15.5c0-0.5,0.1-0.8,0.7-0.8c0.6,0,0.8,0.1,0.8,0.8
		c0,6,0,12,0,17.9c0,0.4,0.3,1-0.3,1.1c-0.7,0.1-1.4,0.3-1.9-0.6c-1.3-2.1-2.6-4.1-4-6.2c-2.1-3.3-4.2-6.5-6.3-9.8
		c-0.2-0.2-0.3-0.5-0.6-0.9c0,0.6,0,0.9,0,1.2c0,5.2,0,10.3,0,15.5c0,0.5,0,0.9-0.7,0.9c-0.7,0-0.8-0.3-0.8-0.9c0-5.9,0-11.9,0-17.8
		c0-0.4-0.3-1,0.3-1.1c0.7-0.1,1.4-0.3,1.9,0.6c1.4,2.4,3,4.7,4.6,7.1c2,3.1,4,6.1,5.9,9.2c0.1,0.1,0.2,0.3,0.3,0.4
		C200.1,64.9,200.2,64.8,200.2,64.8z"/>
	<path class="st3" d="M145.2,82.6c1.1,0,2.2,0,3.2,0c0.3,0,0.6-0.1,0.6,0.4c0,1.9-0.1,3.8-0.8,5.5c-1.2,2.9-3.5,4.3-6.5,4.6
		c-1.5,0.1-3,0.1-4.5-0.4c-3.1-1-4.8-3.3-5.5-6.3c-0.5-2.4-0.5-4.8,0-7.2c1-4.6,4.7-7.1,9.6-6.8c2.7,0.2,5.1,1.1,6.5,3.6
		c0.5,0.9,0.8,1.9,1,3c0,0.2,0.2,0.6-0.3,0.6c-0.4-0.1-1,0.3-1.3-0.3c0-0.1,0-0.2,0-0.3c-0.6-3-2.1-4.5-5.1-5
		c-1.4-0.2-2.8-0.2-4.2,0.2c-2.3,0.6-3.8,2.2-4.5,4.5c-0.7,2.5-0.8,5.1-0.2,7.7c1,4.2,4.4,5.7,8.3,5.2c4.5-0.5,5.8-3.6,5.8-7.1
		c0-0.5-0.2-0.5-0.6-0.5c-1.6,0-3.2,0-4.8,0c-0.6,0-0.9,0-0.9-0.8c0-0.8,0.5-0.6,0.9-0.6C143.2,82.6,144.2,82.6,145.2,82.6z"/>
	<path class="st3" d="M185.6,82.9c0.1,1.5-0.1,3-0.5,4.4c-1,3.2-3.1,5.2-6.5,5.7c-1.6,0.3-3.2,0.2-4.7-0.1c-3.1-0.8-5-2.9-5.8-5.9
		c-0.8-2.9-0.8-5.9,0.1-8.8c1.3-4,4.7-6.1,9.2-5.8c5.1,0.3,7.9,3.6,8.3,8.8C185.7,81.9,185.6,82.4,185.6,82.9z M184.1,82.9
		c-0.1-1-0.1-2.1-0.3-3.1c-0.6-2.7-2-4.7-4.8-5.5c-1.2-0.3-2.4-0.3-3.6-0.2c-3,0.3-5,2-5.8,4.9c-0.6,2.1-0.6,4.2-0.3,6.3
		c0.5,3.9,2.7,6,6.5,6.5c4.1,0.4,7-1.7,7.9-5.7C184,85,184,84,184.1,82.9z"/>
	<path class="st3" d="M243.2,47.1c1.1,0,2.3,0.2,3.3,0.6c2.4,1.1,3.4,3.3,3.5,5.7c0,0.5-0.3,0.6-0.6,0.5c-0.3-0.1-1,0.4-1-0.4
		c0-0.4-0.1-0.9-0.2-1.3c-0.4-2-1.7-3.1-3.6-3.5c-1.7-0.3-3.3-0.2-4.9,0.7c-1.2,0.7-1.8,1.8-1.7,3.2c0,1.4,0.8,2.3,2,2.8
		c1.8,0.8,3.7,1,5.5,1.6c0.9,0.3,1.8,0.5,2.6,0.9c3.1,1.6,3.8,5.7,1.2,8.1c-2.7,2.6-9.2,2.5-11.7-0.1c-1.3-1.3-1.6-3-1.7-4.8
		c0-0.4,0.3-0.5,0.5-0.4c0.4,0.1,0.9-0.4,1.1,0.4c0,0.2,0.1,0.5,0.1,0.7c0.2,2.6,1.7,4.1,4.3,4.5c1.6,0.2,3.2,0.2,4.7-0.4
		c1.7-0.6,2.6-1.9,2.7-3.6c0.1-1.6-0.7-2.7-2.4-3.4c-1.9-0.8-3.9-1-5.8-1.6c-0.5-0.1-0.9-0.3-1.4-0.4c-2.2-0.9-3.2-2.3-3.2-4.3
		c0-2.3,1.1-3.8,3.2-4.8C240.7,47.3,241.9,47.2,243.2,47.1z"/>
	<path class="st3" d="M225.9,47.1c1.3,0,2.4,0.2,3.5,0.6c2.2,0.9,3.8,3.5,3.6,5.8c0,0.5-0.4,0.4-0.6,0.4c-0.3-0.1-0.9,0.4-1-0.3
		c-0.1-0.4-0.1-0.8-0.1-1.2c-0.3-1.9-1.4-3.1-3.2-3.6c-1.8-0.5-3.6-0.4-5.3,0.5c-1.3,0.7-1.9,1.9-1.8,3.3c0.1,1.4,0.8,2.2,2,2.7
		c1.8,0.8,3.7,1,5.5,1.6c0.9,0.3,1.8,0.5,2.6,0.9c3.9,1.7,3.2,6.9,0.7,8.6c-1.9,1.3-4,1.5-6.2,1.4c-0.7,0-1.4-0.1-2-0.3
		c-3.5-0.9-4.5-3.4-4.7-6.3c0-0.5,0.2-0.6,0.6-0.5c0.3,0.1,1-0.4,1,0.4c0.1,4.4,3.2,5.5,7,5.2c1.3-0.1,2.6-0.4,3.6-1.4
		c1.8-1.7,1.4-4.6-0.8-5.8c-1.6-0.8-3.3-1.1-5-1.5c-1.2-0.3-2.3-0.6-3.4-1.1c-3.5-1.7-2.9-6.2-0.8-7.9
		C222.5,47.5,224.2,47.2,225.9,47.1z"/>
	<path class="st3" d="M171.4,67.9c-0.5-0.1-1.2-0.1-2-0.2c-3.4-0.6-5.4-3-5.4-6.5c0-0.4,0.1-0.6,0.5-0.5c0.4,0.1,1.1-0.5,1.2,0.5
		c0,0.4,0.1,0.7,0.1,1.1c0.3,2.1,1.5,3.5,3.6,3.9c1.9,0.5,3.9,0.4,5.7-0.4c1.5-0.7,2.2-1.8,2.2-3.5c0-1.6-0.8-2.6-2.2-3.3
		c-1.7-0.8-3.6-1-5.4-1.5c-1-0.3-1.9-0.6-2.8-1c-3.2-1.6-2.8-6-0.7-7.8c2.4-2,6.9-2.2,9.4-0.5c1.9,1.3,2.4,3.2,2.6,5.3
		c0,0.4-0.2,0.5-0.5,0.4c-0.4-0.1-0.9,0.4-1.1-0.3c-0.1-0.4-0.1-0.8-0.1-1.2c-0.3-1.9-1.3-3.1-3.1-3.6c-1.9-0.5-3.8-0.4-5.5,0.6
		c-1.2,0.7-1.7,1.8-1.6,3.2c0.1,1.3,0.8,2.2,2,2.7c1.3,0.6,2.8,0.9,4.2,1.2c1.3,0.3,2.6,0.6,3.8,1.2c1.7,0.8,2.8,2,2.9,4
		c0.1,2.2-0.7,4-2.7,5.1C174.9,67.7,173.3,67.9,171.4,67.9z"/>
	<path class="st2" d="M166.4,92.7c-1.2,0.3-2,0-2.8-1c-2-2.6-4.1-5.2-6.1-7.7c-0.3-0.4-0.6-0.6-1.2-0.6c-0.7,0.1-1.4,0-2.1,0
		c-0.6,0-0.7,0.2-0.7,0.7c0,2.6,0,5.3,0,7.9c0,0.6-0.1,0.8-0.8,0.8c-0.7,0-0.8-0.2-0.8-0.8c0-6.1,0-12.2,0-18.3
		c0-0.5,0.1-0.8,0.7-0.8c2.7,0.1,5.4-0.2,8.1,0.2c3.8,0.5,5.7,4.3,3.9,7.7c-1,1.8-2.7,2.3-4.5,2.5c-0.4,0-0.7,0-1.3,0.1
		C161.5,86.5,163.9,89.6,166.4,92.7z M153.6,78.2c0,1.1,0,2.2,0,3.3c0,0.3,0,0.6,0.5,0.6c2.2,0,4.4,0.1,6.5-0.2
		c2.1-0.3,3.2-1.6,3.2-3.6c0-2.1-0.9-3.3-3-3.7c-2.2-0.4-4.5-0.1-6.8-0.2c-0.5,0-0.4,0.3-0.4,0.6C153.5,76.1,153.6,77.1,153.6,78.2z
		"/>
	<path class="st3" d="M205.3,57.4c0-3,0-6.1,0-9.1c0-0.6,0.2-0.7,0.7-0.7c3.3,0,6.6,0,9.9,0c0.7,0,0.7,0.3,0.7,0.8
		c0,0.6-0.3,0.6-0.7,0.6c-2.8,0-5.6,0-8.3,0c-0.6,0-0.8,0.1-0.8,0.8c0,2.1,0,4.1,0,6.2c0,0.6,0.1,0.7,0.7,0.7c2.8,0,5.6,0,8.4,0
		c0.5,0,0.7,0.1,0.7,0.7c0,0.5-0.1,0.8-0.7,0.8c-2.7,0-5.5,0-8.2,0c-0.8,0-0.9,0.2-0.9,0.9c0.1,2,0.1,4.1,0,6.1c0,0.8,0.1,1,1,1
		c2.7-0.1,5.4,0,8.2,0c0.5,0,0.8,0.1,0.8,0.7c0,0.6-0.2,0.7-0.8,0.7c-3.3,0-6.6,0-9.9,0c-0.5,0-0.7-0.1-0.7-0.7
		C205.3,63.7,205.3,60.5,205.3,57.4z"/>
	<path class="st3" d="M161.4,55.7c-0.1,2.1,0.2,4.8-0.2,7.4c-0.4,2.6-1.9,4.1-4.5,4.6c-1.6,0.3-3.2,0.3-4.8-0.1
		c-2.4-0.6-3.8-2.1-4.2-4.6c-0.1-0.7-0.2-1.5-0.2-2.2c0-4.2,0-8.3,0-12.5c0-0.6,0.1-0.8,0.8-0.8c0.6,0,0.8,0.2,0.8,0.8
		c0,4.5,0,9,0,13.4c0,2.9,1.5,4.3,4.3,4.6c0.8,0.1,1.7,0.1,2.5-0.1c2.2-0.3,3.5-1.7,3.7-3.9c0.1-0.6,0.1-1.3,0.1-1.9
		c0-4.1,0-8.2,0-12.3c0-0.7,0.4-0.7,0.8-0.7c0.5,0,0.7,0,0.7,0.7C161.4,50.6,161.4,52.9,161.4,55.7z"/>
	<path class="st3" d="M190.1,80.5c0,2.1,0,4.2,0,6.4c0,3,1.3,4.4,4.2,4.8c1.1,0.2,2.2,0.1,3.3-0.2c2.1-0.5,3.1-2,3.2-4.5
		c0-3.9,0-7.8,0-11.7c0-0.6,0-1.1,0-1.7c-0.1-0.7,0.3-0.6,0.8-0.6c0.4,0,0.8-0.2,0.8,0.6c0,4.6,0.1,9.2,0,13.8
		c-0.1,3.7-2.3,5.8-6,5.9c-0.9,0-1.8,0.1-2.7-0.1c-3.3-0.6-5-2.4-5-5.7c-0.1-4.6,0-9.3-0.1-13.9c0-0.7,0.5-0.5,0.8-0.5
		c0.4,0,0.8-0.1,0.8,0.6C190.1,75.9,190.1,78.2,190.1,80.5z"/>
	<path class="st2" d="M205.7,82.8c0-3,0-6.1,0-9.1c0-0.3-0.2-0.7,0.4-0.7c2.7,0.1,5.3-0.2,8,0.2c3.8,0.6,5.7,4.3,3.9,7.7
		c-0.9,1.8-2.6,2.3-4.5,2.5c-1.8,0.2-3.6,0.1-5.5,0.1c-0.6,0-0.8,0.2-0.8,0.8c0,2.6,0,5.2,0,7.8c0,0.6-0.1,0.8-0.7,0.8
		c-0.6,0-0.8-0.2-0.8-0.8C205.7,88.9,205.7,85.9,205.7,82.8z M207.2,78.2c0,1.1,0,2.2,0,3.3c0,0.3,0,0.6,0.4,0.6
		c2,0,4.1,0.1,6.1-0.2c2.1-0.3,3.1-1.5,3.2-3.6c0.1-2.1-0.9-3.4-3-3.8c-2.1-0.4-4.2-0.1-6.2-0.2c-0.5,0-0.4,0.3-0.4,0.6
		C207.2,76,207.2,77.1,207.2,78.2z"/>
	<path class="st0" d="M115.7,54.6c0-12.5,0-25,0-37.5c0-0.2,0-0.5,0-0.7c0-0.3,0.1-0.4,0.4-0.4c0.3,0,0.4,0.1,0.4,0.4
		c0,0.2,0,0.4,0,0.6c0,25.1,0,50.1,0,75.2c0,0.2,0,0.4,0,0.6c0,0.3-0.1,0.4-0.4,0.4c-0.3,0-0.4-0.1-0.4-0.4c0-0.2,0-0.5,0-0.7
		C115.7,79.6,115.7,67.1,115.7,54.6z"/>
	<path class="st3" d="M183.5,57.6c0,3,0,6.1,0,9.1c0,0.7-0.2,0.8-0.8,0.8c-0.6,0-0.8-0.1-0.8-0.8c0-6.1,0-12.2,0-18.4
		c0-0.7,0.3-0.8,0.8-0.8c0.6,0,0.8,0.2,0.8,0.8C183.5,51.4,183.5,54.5,183.5,57.6z"/>
</g>
</svg>
